Coordinates
version=1
nRows=29
nColumns=22
inDegrees=yes

Units are S.I. units (second, meters, Newtons, ...)
If the header above contains a line with 'inDegrees', this indicates whether rotational values are in degrees (yes) or radians (no).

endheader
time	pelvis_tilt	pelvis_list	pelvis_rotation	pelvis_tx	pelvis_ty	pelvis_tz	hip_flexion_r	hip_adduction_r	hip_rotation_r	knee_angle_r	ankle_angle_r	subtalar_angle_r	hip_flexion_l	hip_adduction_l	hip_rotation_l	knee_angle_l	ankle_angle_l	subtalar_angle_l	lumbar_extension	lumbar_bending	lumbar_rotation
      2.21000000	     -2.51132225	     -7.38903356	     15.51619201	     -0.13239526	      0.95166122	     -0.29885287	     27.62654400	      1.41988592	    -13.43275912	    -26.90906824	      0.65898254	      0.17851248	     -0.71621190	     -8.20179638	     13.60165661	    -35.04629902	     11.50577680	      8.77729572	     -2.00988448	      6.70460615	    -14.46936667
      2.22000000	     -2.61957767	     -7.41702808	     15.80296688	     -0.14202286	      0.95050160	     -0.30050678	     28.11368498	      1.07112414	    -13.61753294	    -26.57560224	     -0.00970327	      0.13847846	     -1.08038637	     -8.21926407	     14.09094698	    -33.35728497	     12.56813977	      9.40342249	     -2.07485358	      6.71071404	    -14.67102862
      2.23000000	     -2.72617936	     -7.42252662	     16.09581187	     -0.15177153	      0.94939778	     -0.30219117	     28.53536524	      0.70450205	    -13.80329777	    -26.15307055	     -0.62212949	      0.07670413	     -1.35778344	     -8.20649197	     14.52606042	    -31.78597371	     13.63468320	      9.86575975	     -2.15305352	      6.69330780	    -14.87320107
      2.24000000	     -2.82696409	     -7.41425012	     16.35399447	     -0.16159570	      0.94836638	     -0.30381893	     28.90496397	      0.35091684	    -13.95718419	    -25.66882893	     -1.18410233	     -0.05860902	     -1.54246899	     -8.18008306	     14.80823733	    -30.36533947	     14.70091766	     10.31373708	     -2.25076580	      6.66078500	    -15.05654774
      2.25000000	     -2.92591813	     -7.38028245	     16.58023305	     -0.17145461	      0.94743801	     -0.30542076	     29.21440997	     -0.00600572	    -14.08454610	    -25.11958096	     -1.61781285	     -0.24535848	     -1.63585298	     -8.11351797	     14.94842629	    -29.09940840	     15.71625996	     10.61460557	     -2.35891055	      6.60117795	    -15.20985106
      2.26000000	     -3.03490408	     -7.32862909	     16.75665010	     -0.18133368	      0.94660542	     -0.30696482	     29.48571503	     -0.35549474	    -14.15978157	    -24.51876735	     -1.86310538	     -0.30451363	     -1.62330399	     -8.00163093	     14.93955320	    -28.00182712	     16.66398533	     10.62146129	     -2.46409205	      6.51987986	    -15.30824417
      2.27000000	     -3.09310729	     -7.23621899	     16.94071472	     -0.19113171	      0.94599110	     -0.30850077	     29.64965548	     -0.73654800	    -14.31530641	    -23.89362782	     -1.83643663	     -0.57094664	     -1.59609652	     -7.84251297	     14.86625150	    -27.02138281	     17.49017079	     10.63198954	     -2.62265840	      6.40619805	    -15.45206163
      2.28000000	     -3.16934493	     -7.17964133	     17.06154496	     -0.20087574	      0.94548930	     -0.30992131	     29.79056239	     -1.04986092	    -14.42241540	    -23.20134457	     -1.55107571	     -0.68068038	     -1.44780395	     -7.68339297	     14.67797210	    -26.21146554	     18.25449943	     10.50154191	     -2.74573893	      6.32362699	    -15.49264751
      2.29000000	     -3.20692541	     -7.08875911	     17.16019397	     -0.21049682	      0.94519660	     -0.31131626	     29.86071425	     -1.38170317	    -14.57444270	    -22.51649956	     -0.93609049	     -0.82284710	     -1.29102633	     -7.47105694	     14.43203067	    -25.50667246	     18.87413265	     10.13254259	     -2.90597042	      6.21973546	    -15.54747573
      2.30000000	     -3.24791647	     -7.03468910	     17.21547548	     -0.21999539	      0.94507841	     -0.31259337	     29.88255069	     -1.63687508	    -14.67479901	    -21.74716139	     -0.12449924	     -0.77729670	     -1.07302800	     -7.26096844	     14.18992571	    -24.89859278	     19.37001261	      9.39821810	     -3.03775837	      6.14937557	    -15.55217295
      2.31000000	     -3.27686482	     -7.01098007	     17.24292050	     -0.22935023	      0.94510277	     -0.31378025	     29.87237768	     -1.84115293	    -14.79966350	    -20.96905643	      0.89125517	     -0.56567908	     -0.78323465	     -7.06518885	     13.88514277	    -24.42854141	     19.80916010	      8.73229228	     -3.15600373	      6.11616184	    -15.54715166
      2.32000000	     -3.29465844	     -7.02005077	     17.24595851	     -0.23855773	      0.94527720	     -0.31487731	     29.81635061	     -1.98048267	    -14.91959583	    -20.15788772	      1.98171280	     -0.23711834	     -0.43675302	     -6.87986716	     13.59673006	    -24.07459171	     20.15930529	      8.00658153	     -3.26007204	      6.12035025	    -15.48415781
      2.33000000	     -3.29957453	     -7.04808487	     17.22914941	     -0.24758694	      0.94558437	     -0.31589841	     29.73037556	     -2.07571266	    -15.05773106	    -19.36987300	      3.04238422	      0.17479107	     -0.05440484	     -6.70241320	     13.31173065	    -23.80965342	     20.44283610	      7.28190542	     -3.35296338	      6.14938540	    -15.40807065
      2.34000000	     -3.30169853	     -7.08074617	     17.19328879	     -0.25640041	      0.94601124	     -0.31685685	     29.63404756	     -2.14533141	    -15.20699784	    -18.65266524	      3.99319394	      0.68233378	      0.33924695	     -6.52203540	     13.05199101	    -23.58340860	     20.64413435	      6.55603437	     -3.42395759	      6.18517797	    -15.33929202
      2.35000000	     -3.29214667	     -7.11255687	     17.14385177	     -0.26500920	      0.94653407	     -0.31776109	     29.53835961	     -2.20132164	    -15.39379518	    -18.06748878	      4.76933964	      1.23485558	      0.74370612	     -6.33844059	     12.82474176	    -23.41543312	     20.79091720	      5.88677031	     -3.48756128	      6.22572081	    -15.24481135
      2.36000000	     -3.27542784	     -7.12773353	     17.07510138	     -0.27338850	      0.94714343	     -0.31860825	     29.46694818	     -2.26272298	    -15.62032240	    -17.68110730	      5.35539475	      1.80289478	      1.13613976	     -6.13988335	     12.63348359	    -23.27183803	     20.88067609	      5.28591801	     -3.54418214	      6.25139001	    -15.13070758
      2.37000000	     -3.25317581	     -7.11868851	     16.98644987	     -0.28152553	      0.94782791	     -0.31940181	     29.43440122	     -2.34125699	    -15.88135805	    -17.54298918	      5.75578760	      2.34444672	      1.50277059	     -5.92185670	     12.48046120	    -23.13261630	     20.92162985	      4.76002645	     -3.59425513	      6.25438660	    -14.99436439
      2.38000000	     -3.21873187	     -7.08101191	     16.87154459	     -0.28939311	      0.94860485	     -0.32012318	     29.43322626	     -2.43555675	    -16.16793746	    -17.66902114	      5.99916943	      2.82681784	      1.82203572	     -5.68891504	     12.33865358	    -22.97470449	     20.88817803	      4.30137926	     -3.64574843	      6.22972738	    -14.84412055
      2.39000000	     -3.17593130	     -7.02588587	     16.73367385	     -0.29699838	      0.94945534	     -0.32076853	     29.46478148	     -2.53575214	    -16.46305116	    -18.05329254	      6.11243243	      3.21687044	      2.09885920	     -5.45077359	     12.20955757	    -22.79584431	     20.81284486	      3.89795792	     -3.69194298	      6.18792344	    -14.67924516
      2.40000000	     -3.11171970	     -6.96936629	     16.58260412	     -0.30434604	      0.95039307	     -0.32133101	     29.49517507	     -2.62045682	    -16.75650625	    -18.64974517	      6.13224448	      3.53194215	      2.33313366	     -5.23202646	     12.06789880	    -22.60435388	     20.69077485	      3.50554897	     -3.74218288	      6.14879535	    -14.50078097
      2.41000000	     -3.04950698	     -6.88768790	     16.41240388	     -0.31146270	      0.95139942	     -0.32182149	     29.53887324	     -2.71550808	    -17.00700443	    -19.44138681	      6.09680347	      3.75835743	      2.52287576	     -4.99514931	     11.93844795	    -22.36920584	     20.51760636	      3.12583864	     -3.78146033	      6.07958112	    -14.30530720
      2.42000000	     -2.96407028	     -6.82678898	     16.23976319	     -0.31835380	      0.95248806	     -0.32222764	     29.54503058	     -2.76569073	    -17.22928422	    -20.34855782	      6.02391384	      3.93102556	      2.67144450	     -4.80059372	     11.78933904	    -22.11061192	     20.31123350	      2.72061941	     -3.81970847	      6.03779560	    -14.12597852
      2.43000000	     -2.87719930	     -6.75881073	     16.05704702	     -0.32505109	      0.95365213	     -0.32254774	     29.51980855	     -2.79148719	    -17.36607366	    -21.33491199	      5.93553538	      4.01974668	      2.77501788	     -4.61136515	     11.64022714	    -21.79594375	     20.07194642	      2.43383153	     -3.84759164	      5.98557934	    -13.94112131
      2.44000000	     -2.78343355	     -6.71773809	     15.88027177	     -0.33161282	      0.95485834	     -0.32277725	     29.45507699	     -2.76310899	    -17.44058349	    -22.36318130	      5.86001879	      4.12624267	      2.87028747	     -4.46253280	     11.47436253	    -21.47232160	     19.79961354	      2.04548967	     -3.86491691	      5.95993670	    -13.76632688
      2.45000000	     -2.68213844	     -6.72097690	     15.72433851	     -0.33806862	      0.95609741	     -0.32294441	     29.34065967	     -2.66664728	    -17.46781241	    -23.39466087	      5.80078022	      4.26538406	      2.96206100	     -4.36672159	     11.33701301	    -21.13866001	     19.49648231	      1.53481469	     -3.86880819	      5.98508948	    -13.59732624
      2.46000000	     -2.58846560	     -6.72770802	     15.55477817	     -0.34439461	      0.95734248	     -0.32301198	     29.19408859	     -2.52433030	    -17.38467777	    -24.43396557	      5.79342155	      4.34229361	      3.03490783	     -4.29021939	     11.14160103	    -20.76517498	     19.21392851	      1.22938398	     -3.85400318	      6.00800369	    -13.45243172
      2.47000000	     -2.50131279	     -6.77102700	     15.39575770	     -0.35064986	      0.95856237	     -0.32302451	     29.01625020	     -2.32075112	    -17.24133303	    -25.46036531	      5.82239790	      4.45114674	      3.10976342	     -4.25390328	     10.97256949	    -20.37127948	     18.92081638	      0.81356263	     -3.81751660	      6.07130474	    -13.30212787
      2.48000000	     -2.42103601	     -6.84116764	     15.24059936	     -0.35686010	      0.95972802	     -0.32294701	     28.81091819	     -2.05874743	    -17.02842252	    -26.47303180	      5.92312487	      4.53205473	      3.20015315	     -4.24992351	     10.80964968	    -19.98507299	     18.62180345	      0.46780180	     -3.76793938	      6.15704825	    -13.13326324
      2.49000000	     -2.34634391	     -6.90982173	     15.09526353	     -0.36301019	      0.96083472	     -0.32286560	     28.57965149	     -1.79133726	    -16.79661769	    -27.49027747	      6.02956964	      4.67981985	      3.25339720	     -4.24567930	     10.68998322	    -19.53202065	     18.33685490	     -0.12405103	     -3.70881435	      6.24684804	    -12.99004256
